<svg width="1024" height="1024" viewBox="0 0 1024 1024" fill="none" xmlns="http://www.w3.org/2000/svg">
<rect width="1024" height="1024" rx="30" fill="url(#paint0_linear_1_88)"/>
<g clip-path="url(#clip0_1_88)">
<path d="M370.138 466.96C346.54 498.077 334.067 535.218 334.067 574.37C334.067 622.373 352.894 667.372 387.08 701.079C421.26 734.779 466.562 752.977 514.571 752.284C561.096 751.625 604.929 732.957 637.995 699.717C671.061 666.478 689.503 622.546 689.925 576.017C690.287 536.128 677.742 498.319 653.645 466.676C614.527 415.307 592.982 352.385 592.982 289.498L592.982 220.688C592.982 190.166 568.151 165.335 537.629 165.335H486.142C455.619 165.335 430.788 190.168 430.788 220.688V289.494C430.787 353.075 409.966 414.443 370.138 466.96ZM635.495 480.496C656.495 508.072 667.429 541.031 667.114 575.809C666.355 659.357 597.781 728.291 514.249 729.472C472.344 730.035 432.893 714.21 403.098 684.832C373.294 655.447 356.88 616.216 356.88 574.368C356.88 540.237 367.75 507.862 388.315 480.744C430.28 425.407 452.876 360.85 453.8 293.784L570.201 293.784C571.155 360.199 594.257 426.344 635.495 480.496ZM570.169 228.419L570.169 237.653L453.6 224.299V220.688C453.6 218.787 453.797 216.935 454.111 215.123L570.169 228.419ZM570.169 260.616V270.971L453.6 270.971V247.261L570.169 260.616ZM537.629 188.146C549.883 188.146 560.567 194.96 566.116 204.993L467.919 193.743C473.122 190.213 479.394 188.148 486.14 188.148H537.629V188.146Z" fill="white"/>
<path d="M624.794 557.212C625.684 563.181 626.108 569.313 626.052 575.436C625.994 581.735 631.054 586.888 637.354 586.946C643.61 587.001 648.806 581.944 648.864 575.644C648.93 568.329 648.424 560.995 647.358 553.846C646.514 548.185 641.647 544.12 636.09 544.12C635.53 544.12 634.963 544.161 634.392 544.246C628.163 545.177 623.865 550.981 624.794 557.212Z" fill="white"/>
<path d="M557.668 383.952C556.488 383.952 555.286 384.137 554.103 384.525C548.118 386.493 544.862 392.94 546.83 398.923C559.472 437.366 578.312 473.182 602.828 505.374C606.88 510.696 610.471 516.364 613.499 522.224C616.392 527.821 623.273 530.011 628.87 527.118C634.465 524.225 636.657 517.344 633.764 511.747C630.129 504.717 625.828 497.924 620.977 491.553C598.003 461.385 580.347 427.822 568.501 391.798C566.922 386.996 562.462 383.952 557.668 383.952Z" fill="white"/>
<path d="M392.148 535.311C397.933 537.804 404.645 535.133 407.136 529.348C410.749 520.956 415.426 512.951 421.035 505.557C424.842 500.538 423.858 493.382 418.839 489.576C416.778 488.012 414.357 487.258 411.955 487.258C408.508 487.258 405.101 488.814 402.857 491.773C396.137 500.635 390.528 510.241 386.184 520.323C383.692 526.108 386.361 532.82 392.148 535.311Z" fill="white"/>
<path d="M511.999 688.424C449.109 688.424 397.944 637.258 397.944 574.367C397.944 570.791 398.108 567.188 398.432 563.658C399.007 557.385 394.389 551.834 388.116 551.257C387.761 551.225 387.41 551.209 387.06 551.209C381.231 551.209 376.258 555.654 375.715 561.573C375.328 565.794 375.131 570.098 375.131 574.367C375.131 649.837 436.53 711.237 511.999 711.237C518.299 711.237 523.406 706.13 523.406 699.831C523.406 693.531 518.299 688.424 511.999 688.424Z" fill="white"/>
<path d="M511.999 771.977C505.7 771.977 500.593 777.084 500.593 783.384V847.26C500.593 853.56 505.7 858.667 511.999 858.667C518.299 858.667 523.406 853.56 523.406 847.26V783.384C523.406 777.084 518.299 771.977 511.999 771.977Z" fill="white"/>
<path d="M627.397 749.438C625.283 745.777 621.45 743.732 617.508 743.732C615.573 743.732 613.611 744.225 611.815 745.262C606.36 748.412 604.489 755.388 607.639 760.843L639.562 816.142C642.713 821.599 649.688 823.468 655.143 820.318C660.599 817.168 662.469 810.192 659.319 804.737L627.397 749.438Z" fill="white"/>
<path d="M268.237 444.817L323.535 476.74C328.992 479.891 335.968 478.02 339.117 472.563C342.266 467.108 340.397 460.132 334.94 456.982L279.642 425.059C277.846 424.022 275.885 423.529 273.949 423.529C270.007 423.529 266.173 425.576 264.06 429.235C260.911 434.691 262.781 441.667 268.237 444.817Z" fill="white"/>
<path d="M755.764 699.94L700.465 668.017C698.669 666.98 696.708 666.487 694.772 666.487C690.83 666.487 686.996 668.534 684.884 672.193C681.734 677.649 683.603 684.625 689.06 687.775L744.359 719.698C749.814 722.849 756.79 720.978 759.94 715.521C763.09 710.066 761.22 703.091 755.764 699.94Z" fill="white"/>
<path d="M237.12 583.786H300.996C307.296 583.786 312.403 578.679 312.403 572.379C312.403 566.08 307.296 560.973 300.996 560.973H237.12C230.82 560.973 225.713 566.08 225.713 572.379C225.713 578.679 230.819 583.786 237.12 583.786Z" fill="white"/>
<path d="M711.599 572.379C711.599 578.679 716.706 583.786 723.006 583.786H786.882C793.181 583.786 798.288 578.679 798.288 572.379C798.288 566.08 793.181 560.973 786.882 560.973H723.006C716.705 560.973 711.599 566.08 711.599 572.379Z" fill="white"/>
<path d="M329.228 666.487C327.293 666.487 325.332 666.98 323.535 668.017L268.237 699.94C262.781 703.09 260.911 710.066 264.06 715.521C267.21 720.977 274.188 722.847 279.642 719.698L334.94 687.775C340.396 684.625 342.266 677.649 339.117 672.193C337.004 668.534 333.169 666.487 329.228 666.487Z" fill="white"/>
<path d="M700.465 476.74L755.764 444.817C761.219 441.667 763.09 434.691 759.94 429.235C757.827 425.576 753.993 423.529 750.051 423.529C748.117 423.529 746.155 424.022 744.359 425.059L689.06 456.982C683.605 460.132 681.734 467.108 684.884 472.563C688.032 478.02 695.013 479.889 700.465 476.74Z" fill="white"/>
<path d="M412.185 745.262C410.389 744.225 408.429 743.732 406.492 743.732C402.55 743.732 398.716 745.779 396.604 749.438L364.681 804.737C361.531 810.192 363.402 817.168 368.857 820.318C374.311 823.468 381.289 821.599 384.438 816.142L416.361 760.843C419.511 755.388 417.64 748.412 412.185 745.262Z" fill="white"/>
</g>
<defs>
<linearGradient id="paint0_linear_1_88" x1="0" y1="0" x2="1024" y2="1024" gradientUnits="userSpaceOnUse">
<stop stop-color="#FF7A00"/>
<stop offset="1" stop-color="#FFCE84"/>
</linearGradient>
<clipPath id="clip0_1_88">
<rect width="693.333" height="693.333" fill="white" transform="matrix(-1 0 0 -1 858.667 858.667)"/>
</clipPath>
</defs>
</svg>
